<?xml version="1.0" encoding="UTF-8" standalone="no"?>
<!DOCTYPE svg PUBLIC "-//W3C//DTD SVG 1.1//EN" "http://www.w3.org/Graphics/SVG/1.1/DTD/svg11.dtd">
<svg version="1.1" xmlns="http://www.w3.org/2000/svg" xmlns:xlink="http://www.w3.org/1999/xlink" preserveAspectRatio="xMidYMid meet" viewBox="35.06896851724139 22.577529253090464 229.0574652643678 45.396665631750125" width="225.06" height="41.4"><defs><path d="M155.91 54.18L155.97 54.56L156.05 54.93L156.16 55.3L156.28 55.66L156.43 56.01L156.59 56.35L156.78 56.67L156.98 56.99L157.2 57.29L157.44 57.58L157.69 57.86L157.96 58.12L158.24 58.37L158.54 58.59L158.84 58.8L159.17 58.99L159.5 59.17L159.84 59.32L160.2 59.45L160.56 59.56L160.93 59.64L161.31 59.71L161.7 59.75L162.09 59.76L162.48 59.75L162.87 59.71L163.25 59.64L163.62 59.56L163.98 59.45L164.33 59.32L164.68 59.17L165.01 59L165.33 58.8L165.64 58.59L165.94 58.37L166.22 58.12L166.49 57.86L166.74 57.59L166.98 57.3L167.2 56.99L167.4 56.68L167.58 56.35L167.75 56.01L167.89 55.66L168.02 55.3L168.12 54.93L168.21 54.56L168.27 54.18L168.3 53.79L168.32 53.4L168.32 37.33L173.47 37.33L173.51 53.61L173.49 54.33L173.42 55.04L173.31 55.73L173.16 56.41L172.97 57.07L172.74 57.71L172.48 58.34L172.17 58.95L171.84 59.53L171.46 60.1L171.06 60.64L170.63 61.15L170.17 61.64L169.67 62.1L169.16 62.53L168.61 62.93L168.05 63.3L167.46 63.64L166.85 63.94L166.22 64.21L165.57 64.44L164.91 64.63L164.23 64.78L163.54 64.89L162.83 64.95L162.11 64.97L161.4 64.95L160.69 64.89L160 64.78L159.32 64.63L158.66 64.44L158.01 64.21L157.39 63.94L156.78 63.64L156.19 63.3L155.63 62.94L155.09 62.53L154.57 62.1L154.08 61.64L153.62 61.15L153.19 60.64L152.79 60.1L152.42 59.53L152.08 58.95L151.78 58.34L151.51 57.71L151.28 57.07L151.09 56.41L150.94 55.73L150.83 55.04L150.76 54.33L150.74 53.61L150.7 37.33L155.86 37.33L155.86 53.4L155.87 53.79L155.87 53.79L155.91 54.18ZM51.24 37.4L51.68 37.45L52.13 37.52L52.57 37.59L53 37.69L53.43 37.79L53.85 37.91L54.27 38.05L54.68 38.19L55.08 38.35L55.48 38.52L55.87 38.7L56.26 38.9L56.64 39.1L57.01 39.32L57.37 39.55L57.73 39.79L58.08 40.03L58.42 40.29L58.75 40.56L55.78 44.83L55.57 44.63L55.35 44.45L55.12 44.27L54.88 44.1L54.64 43.94L54.39 43.78L54.14 43.64L53.88 43.5L53.62 43.37L53.35 43.25L53.08 43.14L52.8 43.04L52.52 42.94L52.24 42.86L51.96 42.78L51.67 42.72L51.38 42.66L51.09 42.62L50.8 42.58L50.5 42.55L50.21 42.54L49.91 42.53L49.27 42.56L48.64 42.63L48.02 42.74L47.42 42.9L46.84 43.09L46.28 43.33L45.74 43.6L45.22 43.91L44.73 44.26L44.26 44.64L43.82 45.04L43.42 45.48L43.04 45.95L42.69 46.44L42.38 46.96L42.11 47.5L41.87 48.06L41.68 48.64L41.52 49.24L41.41 49.86L41.34 50.49L41.32 51.13L41.34 51.78L41.41 52.41L41.52 53.03L41.68 53.63L41.87 54.21L42.11 54.77L42.38 55.31L42.69 55.83L43.04 56.32L43.42 56.79L43.82 57.22L44.26 57.63L44.73 58.01L45.22 58.35L45.74 58.66L46.28 58.94L46.84 59.17L47.42 59.37L48.02 59.53L48.64 59.64L49.27 59.71L49.91 59.73L50.22 59.73L50.52 59.71L50.82 59.69L51.12 59.65L51.41 59.6L51.7 59.55L51.99 59.48L52.28 59.41L52.56 59.33L52.84 59.23L53.11 59.13L53.38 59.02L53.64 58.9L53.9 58.77L54.15 58.63L54.4 58.49L54.65 58.33L54.89 58.17L55.12 58L55.35 57.82L55.57 57.64L55.78 57.44L58.74 61.71L58.41 61.98L58.07 62.24L57.72 62.49L57.37 62.73L57 62.95L56.63 63.17L56.25 63.37L55.87 63.57L55.48 63.75L55.08 63.92L54.67 64.08L54.26 64.22L53.85 64.35L53.42 64.47L53 64.58L52.56 64.67L52.12 64.75L51.68 64.82L51.24 64.87L50.79 64.91L50.33 64.93L49.87 64.94L48.84 64.9L47.83 64.79L46.85 64.6L45.89 64.35L44.95 64.03L44.05 63.65L43.19 63.21L42.36 62.71L41.57 62.16L40.82 61.55L40.11 60.89L39.45 60.19L38.85 59.44L38.29 58.65L37.79 57.82L37.35 56.95L36.97 56.05L36.65 55.12L36.4 54.16L36.22 53.17L36.11 52.16L36.07 51.13L36.11 50.1L36.22 49.09L36.4 48.11L36.65 47.15L36.97 46.22L37.35 45.32L37.79 44.45L38.29 43.62L38.85 42.83L39.45 42.08L40.11 41.37L40.82 40.72L41.57 40.11L42.36 39.56L43.19 39.06L44.05 38.61L44.95 38.23L45.89 37.92L46.85 37.66L47.83 37.48L48.84 37.37L49.87 37.33L50.33 37.34L50.79 37.36L50.79 37.36L51.24 37.4ZM194.77 37.56L195.4 37.72L196.01 37.94L196.6 38.19L197.17 38.49L197.72 38.82L198.24 39.2L198.73 39.6L199.2 40.04L199.63 40.52L200.03 41.02L200.4 41.55L200.73 42.1L201.02 42.68L201.27 43.29L201.48 43.91L201.65 44.55L201.77 45.21L201.84 45.88L201.87 46.57L201.85 47.14L201.8 47.7L201.71 48.25L201.6 48.79L201.45 49.32L201.28 49.84L201.07 50.34L200.84 50.82L200.58 51.29L200.29 51.75L199.98 52.18L199.65 52.6L199.29 52.99L198.92 53.36L198.52 53.72L198.1 54.04L197.66 54.35L197.21 54.62L196.74 54.88L196.26 55.1L195.76 55.29L195.24 55.46L201.79 64.88L195.54 64.88L189.24 55.8L185.79 55.8L185.79 64.88L180.63 64.88L180.63 37.33L192.78 37.33L193.46 37.36L194.12 37.43L194.12 37.43L194.77 37.56ZM114.86 37.33L114.86 64.88L109.56 64.88L96.66 46.21L96.66 64.88L91.5 64.88L91.5 37.33L96.7 37.33L109.7 56.12L109.7 37.33L109.7 37.33L114.86 37.33ZM135.36 64.88L130.2 64.88L130.2 42.49L122.01 42.49L122.01 37.33L143.55 37.33L143.55 42.49L135.36 42.49L135.36 42.49L135.36 64.88ZM232.32 37.33L220.91 53.79L220.91 64.88L215.75 64.88L215.75 53.72L204.39 37.33L210.56 37.33L218.36 48.58L226.16 37.33L226.16 37.33L232.32 37.33ZM71.06 48.57L81.7 48.57L81.7 53.73L71.06 53.73L71.06 59.71L84.27 59.71L84.27 64.88L65.9 64.88L65.9 37.33L84.27 37.33L84.27 42.49L71.06 42.49L71.06 42.49L71.06 48.57ZM255.97 28.75L253.11 28.75L253.11 23.59L261.13 23.59L261.13 51.13L255.97 51.13L255.97 51.13L255.97 28.75ZM243.09 23.78L243.71 23.94L244.3 24.14L244.87 24.37L245.41 24.65L245.94 24.96L246.43 25.3L246.9 25.68L247.34 26.09L247.75 26.52L248.13 26.99L248.47 27.48L248.78 28L249.05 28.53L249.29 29.09L249.48 29.67L249.64 30.27L249.75 30.89L249.82 31.52L249.84 32.16L249.84 32.45L249.83 32.74L249.81 33.02L249.79 33.29L249.76 33.56L249.72 33.82L249.68 34.08L249.62 34.33L249.56 34.58L249.49 34.83L249.42 35.08L249.33 35.32L249.23 35.56L249.13 35.81L249.02 36.05L248.89 36.3L248.76 36.55L248.62 36.8L248.47 37.05L248.31 37.31L248.13 37.57L247.95 37.84L242.34 45.92L250.36 45.92L250.36 51.09L232.32 51.09L243.58 34.9L243.67 34.77L243.76 34.63L243.85 34.5L243.93 34.37L244.01 34.24L244.08 34.11L244.15 33.98L244.22 33.85L244.28 33.72L244.33 33.59L244.39 33.46L244.44 33.33L244.48 33.2L244.52 33.07L244.56 32.94L244.59 32.81L244.61 32.68L244.64 32.55L244.65 32.41L244.66 32.28L244.67 32.14L244.67 32.01L244.67 31.8L244.64 31.6L244.6 31.39L244.55 31.19L244.48 30.98L244.39 30.78L244.29 30.58L244.18 30.39L244.05 30.2L243.91 30.02L243.75 29.85L243.59 29.68L243.41 29.53L243.21 29.39L243.01 29.26L242.79 29.14L242.56 29.04L242.32 28.95L242.07 28.88L241.81 28.82L241.54 28.79L241.26 28.77L240.96 28.78L240.66 28.8L240.38 28.85L240.12 28.91L239.86 29L239.62 29.1L239.39 29.21L239.17 29.35L238.97 29.5L238.78 29.66L238.6 29.84L238.44 30.04L238.3 30.24L238.16 30.46L238.04 30.69L237.94 30.93L237.85 31.18L237.78 31.43L237.72 31.7L237.68 31.98L237.65 32.26L237.64 32.54L232.39 32.54L232.42 31.86L232.48 31.19L232.6 30.54L232.76 29.91L232.96 29.3L233.19 28.71L233.47 28.14L233.78 27.61L234.13 27.09L234.52 26.61L234.93 26.16L235.38 25.73L235.85 25.34L236.35 24.99L236.88 24.67L237.43 24.39L238 24.15L238.6 23.95L239.21 23.79L239.84 23.67L240.49 23.6L241.15 23.58L241.82 23.6L242.46 23.67L242.46 23.67L243.09 23.78ZM192.62 50.64L193.69 50.5L194.64 50.09L195.45 49.45L196.08 48.62L196.49 47.65L196.63 46.57L196.49 45.49L196.08 44.52L195.45 43.69L194.64 43.05L193.68 42.64L192.62 42.49L185.79 42.49L185.79 50.64L185.79 50.64L192.62 50.64Z" id="c19WbfVQLn"></path></defs><g><g><use xlink:href="#c19WbfVQLn" opacity="1" fill="#b3a485" fill-opacity="1"></use><g><use xlink:href="#c19WbfVQLn" opacity="1" fill-opacity="0" stroke="#000000" stroke-width="1" stroke-opacity="0"></use></g></g></g></svg>